PathFileType	4	(X/Y/Z)	/Users/niels/Desktop/University/Third Semester/Perception and Action/Exam/Gymnastics Motion Tracking/Code for Gym Tracking/Analyzed Data/Start Salto/stsalto_bad_id15_1_Sports2D/stsalto_bad_id15_1_Sports2D_px_person00.trc
DataRate	CameraRate	NumFrames	NumMarkers	Units	OrigDataRate	OrigDataStartFrame	OrigNumFrames
29.85576923076923	29.85576923076923	11	22	m	29.85576923076923	182	208
Frame#	Time	Hip			RHip			RKnee			RAnkle			RBigToe			RSmallToe			RHeel			LHip			LKnee			LAnkle			LBigToe			LSmallToe			LHeel			Neck			Head			Nose			RShoulder			RElbow			RWrist			LShoulder			LElbow			LWrist		
		X1	Y1	Z1	X2	Y2	Z2	X3	Y3	Z3	X4	Y4	Z4	X5	Y5	Z5	X6	Y6	Z6	X7	Y7	Z7	X8	Y8	Z8	X9	Y9	Z9	X10	Y10	Z10	X11	Y11	Z11	X12	Y12	Z12	X13	Y13	Z13	X14	Y14	Z14	X15	Y15	Z15	X16	Y16	Z16	X17	Y17	Z17	X18	Y18	Z18	X19	Y19	Z19	X20	Y20	Z20	X21	Y21	Z21	X22	Y22	Z22
182	6.09597423510467	1.4670139417369783	-0.711487864848738	0.0	1.467067396169182	-0.7073470511987338	0.0	1.6228959793508697	-0.6687085079698788	0.0	1.5909232908918702	-0.7848692845744435	0.0	1.6413985187839366	-0.803177428297721	0.0	1.6324216567121541	-0.811430636566265	0.0	1.5773350598501679	-0.8041571915991792	0.0	1.4645465292978035	-0.7083135680699435	0.0	1.6053541942889102	-0.6709821770928288	0.0	1.5286715539204436	-0.7744313870868063	0.0	1.573620717495868	-0.7941909111446601	0.0	1.5714220875183316	-0.7927106085604908	0.0	1.5071382219385578	-0.7859894840333965	0.0	1.571291332072555	-0.5770963887960269	0.0	1.635310943451339	-0.5116503147297736	0.0	1.6302215705897127	-0.5641527303823574	0.0	1.557813109183287	-0.5898933168804066	0.0	1.5470511142830194	-0.6742947303851602	0.0	1.5725449130074938	-0.7523340749016391	0.0	1.5754917809513445	-0.5840035855704062	0.0	1.6468667620348199	-0.5930562676339809	0.0	1.7300452003739129	-0.5780651500750476	0.0
183	6.1294685990338165	1.468056905688288	-0.7108930788967922	0.0	1.4688465538031332	-0.7070099584013627	0.0	1.6252146405788634	-0.6701767750263236	0.0	1.5906933507260517	-0.78479404012202	0.0	1.6411554101027765	-0.8035128585021651	0.0	1.6322974264341723	-0.811657797019965	0.0	1.5765714363143515	-0.8034870289168837	0.0	1.4648163191557446	-0.706728936323301	0.0	1.6017972411275547	-0.672369654486796	0.0	1.5287246225823652	-0.7741861527254713	0.0	1.5723461916881516	-0.7923662070844483	0.0	1.5660557664544108	-0.7920788614550975	0.0	1.5053966909966154	-0.7862227982591086	0.0	1.573947161580834	-0.5780340133740748	0.0	1.6381121918821455	-0.5125191478863188	0.0	1.6326354835408106	-0.5649817307215387	0.0	1.5596688172001807	-0.5926790549083762	0.0	1.5441568697051031	-0.6783620514093178	0.0	1.5619065969010089	-0.7600294986445151	0.0	1.5780716370037629	-0.5849689929378825	0.0	1.648811212657025	-0.5942722086378657	0.0	1.7323477679121482	-0.5812915710886607	0.0
184	6.162962962962963	1.4692517351043222	-0.7102373867248913	0.0	1.4708261927651387	-0.7072376293541093	0.0	1.6272490677875888	-0.6714994354713828	0.0	1.5906236496369808	-0.784931725315322	0.0	1.6408642784643004	-0.8035179088432859	0.0	1.6321341121595274	-0.8115979568027989	0.0	1.576252551572601	-0.8029679816490181	0.0	1.4651389317662098	-0.7049285210517858	0.0	1.596338801662507	-0.6735695244766468	0.0	1.528749532908992	-0.773796057609419	0.0	1.5695259176744794	-0.7908564345898851	0.0	1.5589083853594439	-0.7917110727197069	0.0	1.504053908949967	-0.7865628454182613	0.0	1.5765775201248469	-0.5790260636096557	0.0	1.6409857028274628	-0.5135239587298825	0.0	1.6352282817156751	-0.5659245077607902	0.0	1.561497836904905	-0.5958310895039793	0.0	1.541478742221491	-0.6824510740389491	0.0	1.5522149173622917	-0.7674372396652709	0.0	1.5801110746867417	-0.5856354194934138	0.0	1.650560976694197	-0.5955515619065382	0.0	1.7351768874852753	-0.5844259893205155	0.0
185	6.1964573268921095	1.4706353810761117	-0.7096524700127645	0.0	1.4728711598243964	-0.7080124642321426	0.0	1.6291050621583318	-0.6724678300561775	0.0	1.5907360127917132	-0.7852605201560761	0.0	1.6409419317835712	-0.8033682572964062	0.0	1.6321428227531616	-0.8114335174268038	0.0	1.57635555413256	-0.8026549392830166	0.0	1.4658019821424766	-0.7032606841093894	0.0	1.5906384335789514	-0.6743526044173482	0.0	1.5289291605976907	-0.7733019153252974	0.0	1.566025632333915	-0.7902056215223834	0.0	1.5521353131321394	-0.7917641623189113	0.0	1.5036197896491994	-0.7866932839186156	0.0	1.5792152976820109	-0.5801061844344367	0.0	1.644087189781253	-0.5146895458640137	0.0	1.6380755282755979	-0.5670045086667441	0.0	1.5632765532936146	-0.5992079390840904	0.0	1.5391953953376747	-0.6867105849674978	0.0	1.5440480900486162	-0.7744171113367806	0.0	1.58167079090972	-0.5860918438355593	0.0	1.6523939715913012	-0.5969060327447737	0.0	1.7385675414605932	-0.5873864721016315	0.0
186	6.229951690821256	1.472244474849707	-0.709166632895104	0.0	1.4747794922910327	-0.7091197055356723	0.0	1.6309317300680555	-0.6730147266895693	0.0	1.590938250316088	-0.7856595024997436	0.0	1.6415570428388175	-0.8032415775529744	0.0	1.632335342149873	-0.8113152486499883	0.0	1.576664958900968	-0.802463774211767	0.0	1.4672537159657844	-0.7018621915315247	0.0	1.5871650920598024	-0.6744201386033372	0.0	1.5296541099143455	-0.7727772174997833	0.0	1.5638937107365112	-0.790420727572447	0.0	1.5484303943550186	-0.7921274032189831	0.0	1.5046201997084294	-0.7865177909725143	0.0	1.5818995267687637	-0.5813597814720292	0.0	1.647561549779471	-0.5160259539762948	0.0	1.641211831988112	-0.5683124229765067	0.0	1.5649692578087155	-0.602645002738516	0.0	1.5375192201108543	-0.6912828903092482	0.0	1.53760269657815	-0.7809092443374108	0.0	1.582982394933846	-0.5864584627179278	0.0	1.654613999239024	-0.5983517758922393	0.0	1.7423917850717139	-0.5902425956043817	0.0
187	6.2634460547504025	1.474112888461178	-0.7087436201476106	0.0	1.4764377995486688	-0.7103096150451532	0.0	1.632864659443954	-0.6732441643890827	0.0	1.591128887118026	-0.7859945776425632	0.0	1.6425210286118543	-0.8032778776685796	0.0	1.6324983095734322	-0.8113318931966687	0.0	1.5768891871695145	-0.8022668859892368	0.0	1.4698818902140502	-0.7007362510131958	0.0	1.587686590432604	-0.6736044434936259	0.0	1.5313856318072667	-0.7723061742152869	0.0	1.564962084105803	-0.7911461694399882	0.0	1.5494077027046487	-0.7925235208508338	0.0	1.5074347760076892	-0.7861634517399045	0.0	1.584681293699743	-0.5828665488229758	0.0	1.6515152673784066	-0.5175667330968471	0.0	1.644629296584147	-0.5699862707034646	0.0	1.566568091430668	-0.6059795402117459	0.0	1.5366605953797323	-0.6961606814357285	0.0	1.5328520549538385	-0.7868002457392876	0.0	1.5843163170473444	-0.5868253491258364	0.0	1.6573588510514425	-0.5999915900261698	0.0	1.7463871243677067	-0.5932685360976676	0.0
188	6.296940418679549	1.4762363763506552	-0.7083682234496748	0.0	1.4779012913973633	-0.7114226364173133	0.0	1.6350004795361919	-0.6734004650331137	0.0	1.5912912931280347	-0.786191721586873	0.0	1.6434961185747703	-0.8035477041286737	0.0	1.6324217587415584	-0.8114857206087245	0.0	1.5768224211892925	-0.8020061736274399	0.0	1.4737074182758778	-0.6999056545710453	0.0	1.5922475274412315	-0.6720632908288159	0.0	1.5344480589127694	-0.7719756412377113	0.0	1.5694080085287676	-0.791965581238567	0.0	1.554917361610613	-0.7927183930325877	0.0	1.5121342462554577	-0.7858413662681625	0.0	1.5875854962925688	-0.5846391007179083	0.0	1.6559851697442045	-0.5194167616461467	0.0	1.64829116450751	-0.5721340529755314	0.0	1.568130192521241	-0.6090834341285878	0.0	1.5367787767985173	-0.7010697953728272	0.0	1.5297371308555032	-0.7918842122592699	0.0	1.5858493275519183	-0.5871959316981229	0.0	1.6605074921050191	-0.6019906339644192	0.0	1.7502434799762159	-0.5968706049234048	0.0
189	6.3304347826086955	1.4785946956033171	-0.7080840750076324	0.0	1.4793675291876804	-0.7123960272300074	0.0	1.6374224968955995	-0.6737728219638798	0.0	1.5914836195403672	-0.786273766103467	0.0	1.6442422669731833	-0.8040441018208154	0.0	1.632093722213783	-0.8117316634740808	0.0	1.5764634788843774	-0.8017468445456312	0.0	1.478355019914663	-0.6994253346674046	0.0	1.5994488947703136	-0.6702737195187375	0.0	1.5388857848064503	-0.7718812751177642	0.0	1.575843365896929	-0.792603482929874	0.0	1.5635605308289704	-0.7926916787553533	0.0	1.5183741581535317	-0.7857335226049748	0.0	1.5906158419767504	-0.5866218066779131	0.0	1.6609592730510812	-0.5217534300996102	0.0	1.6521458416358896	-0.5748326264388836	0.0	1.5697833630237483	-0.6118882546750877	0.0	1.5378999159587712	-0.7055910299247571	0.0	1.5281472060559318	-0.7960386002939441	0.0	1.5877365417508058	-0.5875122679159698	0.0	1.6637825746167345	-0.6044839043978701	0.0	1.7537154629944733	-0.6014672412747472	0.0
190	6.363929146537842	1.481194734707672	-0.7079320569485581	0.0	1.481095269945628	-0.7132174077667366	0.0	1.6402461618614634	-0.6745532807173731	0.0	1.5917657462656358	-0.7863267944380496	0.0	1.6447382533824013	-0.8046928417326192	0.0	1.6317173521539368	-0.81204034721802	0.0	1.576020690965518	-0.8015970187189165	0.0	1.4833246201308354	-0.6992941362041135	0.0	1.6075854591163823	-0.6687107726277164	0.0	1.5444569374556294	-0.7721090139148639	0.0	1.5826705114641773	-0.7929886072737063	0.0	1.5735707543220738	-0.7925863233572908	0.0	1.5254708910613668	-0.7859774462267513	0.0	1.5937983271391052	-0.5887134854302497	0.0	1.666415820080619	-0.524750186175489	0.0	1.6561227918937982	-0.5781552884273587	0.0	1.5717008967600241	-0.6143852502238254	0.0	1.539846125379802	-0.7094405263860085	0.0	1.527799426431705	-0.7993806966139286	0.0	1.59012964627311	-0.5876907635612344	0.0	1.6669099848748345	-0.6075459558152722	0.0	1.7567034008578628	-0.607394041522079	0.0
191	6.3974235104669885	1.4840596710094813	-0.7078341406900063	0.0	1.483322209249554	-0.7138356962836057	0.0	1.6436269712407225	-0.6757586156464136	0.0	1.5921692560746636	-0.7864008203404158	0.0	1.6451784998563261	-0.8053639817120575	0.0	1.6316505798869176	-0.8123883010354958	0.0	1.575778250102116	-0.801559187845149	0.0	1.4882140252094431	-0.6993609820151996	0.0	1.615482405673502	-0.6675636346904246	0.0	1.550749207997061	-0.7726515624396995	0.0	1.5889849860026362	-0.7931593284000606	0.0	1.583357303583106	-0.7925025133666371	0.0	1.5326612829980946	-0.786597783311282	0.0	1.5972026056090445	-0.5907636370669563	0.0	1.67232360747675	-0.528466424438138	0.0	1.6601331433049267	-0.5821226373539423	0.0	1.5740462794634686	-0.6166313432592051	0.0	1.5422401086635433	-0.712590393855496	0.0	1.528252203326918	-0.8021668372486492	0.0	1.5930717860611905	-0.5875995225137187	0.0	1.6696781426617988	-0.6111974561065915	0.0	1.7592225852628993	-0.6148189989009268	0.0
192	6.430917874396135	1.4872151111541152	-0.7075312802829685	0.0	1.4861852302866478	-0.7140589098944699	0.0	1.6476875285502282	-0.6772677946464927	0.0	1.5927117610645503	-0.7864687093947279	0.0	1.6457922952349688	-0.8059231901977413	0.0	1.6322377539513533	-0.8127353020062167	0.0	1.5759014129917437	-0.801519724983538	0.0	1.492838675141905	-0.6992938530991443	0.0	1.622594441946362	-0.6668282651365851	0.0	1.5573590378427682	-0.7733657677455276	0.0	1.594615617312552	-0.7931794303778469	0.0	1.5919965678265524	-0.7924297763364011	0.0	1.5394344271070177	-0.7874051989578372	0.0	1.600954685922181	-0.5925630465765074	0.0	1.6786608307552686	-0.5327908529609073	0.0	1.6641709454803697	-0.5866185041117745	0.0	1.5769134890790084	-0.6186946184673929	0.0	1.5446428023105123	-0.7151291158230547	0.0	1.5290379255214297	-0.8045471463289391	0.0	1.5965679292853097	-0.5870764406089739	0.0	1.6720224968158928	-0.6153492927417591	0.0	1.7613097211150166	-0.6236555833154875	0.0
